<svg xmlns="http://www.w3.org/2000/svg" viewBox="0 0 64 80" x="0px" y="0px"><g><path d="M58,36.1V11a5.006,5.006,0,0,0-5-5H11a5.006,5.006,0,0,0-5,5V28.1A5.009,5.009,0,0,0,2,33V57a5.006,5.006,0,0,0,5,5H23a5.006,5.006,0,0,0,5-5V52H41a1,1,0,0,0,.929-1.372L38.477,42H46V57a5.006,5.006,0,0,0,5,5h6a5.006,5.006,0,0,0,5-5V41A5.009,5.009,0,0,0,58,36.1ZM60,41V54H48V41a3,3,0,0,1,3-3h6A3,3,0,0,1,60,41ZM32,40H28V34H56v2H51a5.009,5.009,0,0,0-4.9,4ZM11,8H53a3,3,0,0,1,3,3V32H27.9A5.009,5.009,0,0,0,23,28H8V11A3,3,0,0,1,11,8ZM26,57a3,3,0,0,1-3,3H7a3,3,0,0,1-3-3V33a3,3,0,0,1,3-3H23a3,3,0,0,1,3,3V57Zm13.523-7H28V42h8.323ZM57,60H51a3,3,0,0,1-3-3V56H60v1A3,3,0,0,1,57,60Z"/><path d="M35,37a3,3,0,1,0-3,3A3,3,0,0,0,35,37Zm-3,1a1,1,0,1,1,1-1A1,1,0,0,1,32,38Z"/><path d="M49,12h3v3a1,1,0,0,0,2,0V12a2,2,0,0,0-2-2H49a1,1,0,0,0,0,2Z"/><path d="M55,57H53a1,1,0,0,0,0,2h2a1,1,0,0,0,0-2Z"/><path d="M55,39H53a1,1,0,0,0,0,2h2a1,1,0,0,0,0-2Z"/><path d="M15,53a3,3,0,1,0,3,3A3,3,0,0,0,15,53Zm0,4a1,1,0,1,1,1-1A1,1,0,0,1,15,57Z"/><path d="M14,33h2a1,1,0,0,0,0-2H14a1,1,0,0,0,0,2Z"/><path d="M23.172,19.171a1,1,0,0,0,.674-.26l.236-.217a12.355,12.355,0,0,1,15.8-.028l.268.244A1,1,0,1,0,41.5,17.43l-.3-.272a14.372,14.372,0,0,0-18.431.029l-.27.245a1,1,0,0,0,.674,1.739Z"/><path d="M27.922,23.3A1,1,0,1,0,29.2,24.839a4.37,4.37,0,0,1,5.594,0A1,1,0,1,0,36.078,23.3,6.367,6.367,0,0,0,27.922,23.3Z"/><path d="M38.706,20.292a10.377,10.377,0,0,0-13.412,0h0a1,1,0,0,0,1.349,1.474,8.343,8.343,0,0,1,10.716,0,1,1,0,0,0,1.349-1.474Z"/></g></svg>