<svg xmlns="http://www.w3.org/2000/svg" xmlns:xlink="http://www.w3.org/1999/xlink" xmlns:xodm="http://www.corel.com/coreldraw/odm/2003" xml:space="preserve" version="1.1" style="shape-rendering:geometricPrecision;text-rendering:geometricPrecision;image-rendering:optimizeQuality;" viewBox="0 0 846.66 1058.325" x="0px" y="0px" fill-rule="evenodd" clip-rule="evenodd"><defs><style type="text/css">
   
    .fil0 {fill:black}
   
  </style></defs><g><path class="fil0" d="M281.21 477.06c0,10.09 -2.77,19.52 -7.6,27.59l60.69 0 0 57.24c6.38,-2.67 13.4,-4.15 20.75,-4.15 10.08,0 19.51,2.77 27.57,7.6l0 -60.69 60.7 0c-4.83,-8.06 -7.6,-17.5 -7.6,-27.59 0,-29.69 24.07,-53.77 53.77,-53.77 29.71,0 53.78,24.08 53.78,53.77 0,10.09 -2.78,19.53 -7.6,27.59l60.68 0 0 60.69c-8.05,-4.83 -17.49,-7.6 -27.57,-7.6 -29.7,0 -53.78,24.07 -53.78,53.77 0,29.7 24.08,53.78 53.78,53.78 10.08,0 19.52,-2.78 27.57,-7.6l0 60.69 -213.73 0 0 -60.69c-8.06,4.82 -17.49,7.6 -27.57,7.6 -7.36,0 -14.37,-1.48 -20.75,-4.15l0 57.24 -213.72 0 0 -60.69c-8.07,4.82 -17.51,7.6 -27.59,7.6 -29.7,0 -53.77,-24.08 -53.77,-53.78 0,-29.7 24.07,-53.77 53.77,-53.77 10.08,0 19.52,2.78 27.59,7.6l0 -60.69 60.68 0c-4.82,-8.07 -7.61,-17.5 -7.61,-27.59 0,-5.61 0.86,-11.02 2.45,-16.09l-55.53 0 0 -213.74 60.69 0c-4.82,-8.06 -7.6,-17.49 -7.6,-27.57 0,-29.7 24.08,-53.78 53.78,-53.78 29.7,0 53.77,24.08 53.77,53.78 0,10.08 -2.77,19.51 -7.6,27.57l60.69 0 0 60.7c8.06,-4.83 17.5,-7.6 27.58,-7.6 29.7,0 53.78,24.07 53.78,53.78 0,29.7 -24.08,53.77 -53.78,53.77 -10.08,0 -19.52,-2.77 -27.58,-7.6l0 60.69 -55.54 0c1.6,5.07 2.45,10.48 2.45,16.09zm-102.93 -21.84c8.38,-18.82 27.23,-31.93 49.16,-31.93 21.91,0 40.79,13.11 49.15,31.94 2.97,-6.67 4.62,-14.06 4.62,-21.84 0,-29.7 -24.07,-53.77 -53.77,-53.77 -29.7,0 -53.78,24.07 -53.78,53.77 0,7.77 1.65,15.16 4.62,21.83zm152.6 108.24c-7.27,-3.66 -15.46,-5.72 -24.16,-5.72 -29.7,0 -53.77,24.07 -53.77,53.77 0,29.7 24.07,53.78 53.77,53.78 8.7,0 16.89,-2.07 24.16,-5.73 -17.57,-8.85 -29.61,-27.04 -29.61,-48.05 0,-21.02 12.04,-39.2 29.61,-48.05zm320.33 -435.21c86.22,0 156.23,70 156.23,156.22 0,81.8 -62.92,148.95 -142.99,155.68l0 32.55c10.52,4.98 17.84,15.72 17.84,28.09l0 113.37c0,41.12 -62.15,41.12 -62.15,0l0 -113.37c0,-12.37 7.31,-23.11 17.83,-28.09l0 -32.55c-80,-6.75 -142.99,-73.95 -142.99,-155.68 0,-86.26 69.97,-156.22 156.23,-156.22zm0 56.8c54.93,0 99.44,44.51 99.44,99.43 0,54.93 -44.51,99.44 -99.44,99.44 -54.92,0 -99.44,-44.51 -99.44,-99.44 0,-10.09 1.52,-19.82 4.31,-28.99 7.8,17.54 25.37,29.75 45.79,29.75 27.68,0 50.1,-22.42 50.1,-50.1 0,-20.42 -12.21,-37.99 -29.75,-45.79 9.17,-2.79 18.9,-4.3 28.99,-4.3zm0 -12.66c-61.92,0 -112.09,50.16 -112.09,112.08 0,61.95 50.13,112.1 112.09,112.1 61.93,0 112.09,-50.17 112.09,-112.1 0,-61.99 -50.11,-112.08 -112.09,-112.08z"/></g></svg>